<svg xmlns="http://www.w3.org/2000/svg" width="14.5" height="23.5" viewBox="0 0 14.5 23.5"><defs><filter id="a" width="200%" height="200%" x="-50%" y="-50%"><feMorphology in="SourceGraphic" operator="dilate" result="SvgjsFeMorphology1049Out"/><feOffset dx="3.5" dy="3.5" in="SvgjsFeMorphology1049Out" result="SvgjsFeOffset1050Out"/><feGaussianBlur in="SvgjsFeOffset1050Out" result="SvgjsFeGaussianBlur1051Out" stdDeviation="1.5"/><feComposite in="SvgjsFeGaussianBlur1051Out" in2="SourceAlpha" operator="out" result="SvgjsFeComposite1052Out"/></filter><filter id="b" width="200%" height="200%" x="-50%" y="-50%"><feGaussianBlur in="SourceGraphic" result="SvgjsFeGaussianBlur1058Out" stdDeviation=".5"/></filter><mask id="c"><path fill="#fff" d="M961.9 7255.08h1.5v-2.46h-1.84v.01c-2.9.1-3.49 1.73-3.54 3.44v1.97h-1.48v2.47h1.48v7.88h2.95v-7.88h2.21l.44-2.47h-2.65v-1.78c0-.58.38-1.18.93-1.18z"/></mask></defs><path fill="#020303" fill-opacity=".15" d="M961.9 7255.08h1.5v-2.46h-1.84v.01c-2.9.1-3.49 1.73-3.54 3.44v1.97h-1.48v2.47h1.48v7.88h2.95v-7.88h2.21l.44-2.47h-2.65v-1.78c0-.58.38-1.18.93-1.18z" filter="url(#a)" transform="translate(-956 -7252)"/><path fill="#eef1f9" d="M5.9 3.08h1.5V.62H5.57v.01c-2.9.1-3.49 1.73-3.54 3.44v1.97H.54v2.47h1.48v7.88h2.95V8.51h2.21l.44-2.47H4.97V4.26c0-.58.38-1.18.93-1.18z"/><path fill="#eef1f9" d="M5.9 3.08h1.5V.62H5.57v.01c-2.9.1-3.49 1.73-3.54 3.44v1.97H.54v2.47h1.48v7.88h2.95V8.51h2.21l.44-2.47H4.97V4.26c0-.58.38-1.18.93-1.18z"/><path fill="#fff" d="M955 7271v-21h10v21zm6.9-14.92h1.5v-2.46h-1.84v.01c-2.9.1-3.49 1.73-3.54 3.44v1.97h-1.48v2.47h1.48v7.88h2.95v-7.88h2.21l.44-2.47h-2.65v-1.78c0-.58.38-1.18.93-1.18z" filter="url(#b)" mask="url(&quot;#c&quot;)" transform="translate(-956 -7252)"/></svg>