<svg xmlns="http://www.w3.org/2000/svg" width="23.5" height="19.5" viewBox="0 0 23.5 19.5"><defs><filter id="a" width="200%" height="200%" x="-50%" y="-50%"><feMorphology in="SourceGraphic" operator="dilate" result="SvgjsFeMorphology1034Out"/><feOffset dx="3.5" dy="3.5" in="SvgjsFeMorphology1034Out" result="SvgjsFeOffset1035Out"/><feGaussianBlur in="SvgjsFeOffset1035Out" result="SvgjsFeGaussianBlur1036Out" stdDeviation="1.5"/><feComposite in="SvgjsFeGaussianBlur1036Out" in2="SourceAlpha" operator="out" result="SvgjsFeComposite1037Out"/></filter><filter id="b" width="200%" height="200%" x="-50%" y="-50%"><feGaussianBlur in="SourceGraphic" result="SvgjsFeGaussianBlur1043Out" stdDeviation=".5"/></filter><mask id="c"><path fill="#fff" d="M923.64 7255.64a5.8 5.8 0 0 1-1.8.51 3.47 3.47 0 0 0 1.35-1.77 5.3 5.3 0 0 1-2.03.72 3.25 3.25 0 0 0-5.51 2.98 9.02 9.02 0 0 1-6.7-3.38 3.26 3.26 0 0 0 .99 4.3c-.39.03-1.1-.05-1.42-.37-.03 1.14.52 2.64 2.5 3.18-.38.21-1.06.15-1.35.1.1.96 1.44 2.21 2.9 2.21-.52.61-2.48 1.7-4.68 1.35a9.67 9.67 0 0 0 5.08 1.44 9.03 9.03 0 0 0 9.1-9.5v-.02-.04-.05a5.5 5.5 0 0 0 1.57-1.66z"/></mask></defs><path fill="#020303" fill-opacity=".15" d="M923.64 7255.64a5.8 5.8 0 0 1-1.8.51 3.47 3.47 0 0 0 1.35-1.77 5.3 5.3 0 0 1-2.03.72 3.25 3.25 0 0 0-5.51 2.98 9.02 9.02 0 0 1-6.7-3.38 3.26 3.26 0 0 0 .99 4.3c-.39.03-1.1-.05-1.42-.37-.03 1.14.52 2.64 2.5 3.18-.38.21-1.06.15-1.35.1.1.96 1.44 2.21 2.9 2.21-.52.61-2.48 1.7-4.68 1.35a9.67 9.67 0 0 0 5.08 1.44 9.03 9.03 0 0 0 9.1-9.5v-.02-.04-.05a5.5 5.5 0 0 0 1.57-1.66z" filter="url(#a)" transform="translate(-907 -7254)"/><path fill="#eaf9fe" d="M16.64 1.64a5.8 5.8 0 0 1-1.8.51A3.47 3.47 0 0 0 16.19.38a5.3 5.3 0 0 1-2.03.72 3.25 3.25 0 0 0-5.51 2.98A9.02 9.02 0 0 1 1.95.7 3.26 3.26 0 0 0 2.94 5c-.39.03-1.1-.05-1.42-.37-.03 1.14.52 2.64 2.5 3.18-.38.21-1.06.15-1.35.1.1.96 1.44 2.21 2.9 2.21-.52.61-2.48 1.7-4.68 1.35a9.67 9.67 0 0 0 5.08 1.44 9.03 9.03 0 0 0 9.1-9.5v-.02-.04-.05a5.5 5.5 0 0 0 1.57-1.66z"/><path fill="#eaf9fe" d="M16.64 1.64a5.8 5.8 0 0 1-1.8.51A3.47 3.47 0 0 0 16.19.38a5.3 5.3 0 0 1-2.03.72 3.25 3.25 0 0 0-5.51 2.98A9.02 9.02 0 0 1 1.95.7 3.26 3.26 0 0 0 2.94 5c-.39.03-1.1-.05-1.42-.37-.03 1.14.52 2.64 2.5 3.18-.38.21-1.06.15-1.35.1.1.96 1.44 2.21 2.9 2.21-.52.61-2.48 1.7-4.68 1.35a9.67 9.67 0 0 0 5.08 1.44 9.03 9.03 0 0 0 9.1-9.5v-.02-.04-.05a5.5 5.5 0 0 0 1.57-1.66z"/><path fill="#fff" d="M906 7269v-17h19v17zm17.64-12.36a5.8 5.8 0 0 1-1.8.51 3.47 3.47 0 0 0 1.35-1.77 5.3 5.3 0 0 1-2.03.72 3.25 3.25 0 0 0-5.51 2.98 9.02 9.02 0 0 1-6.7-3.38 3.26 3.26 0 0 0 .99 4.3c-.39.03-1.1-.05-1.42-.37-.03 1.14.52 2.64 2.5 3.18-.38.21-1.06.15-1.35.1.1.96 1.44 2.21 2.9 2.21-.52.61-2.48 1.7-4.68 1.35a9.67 9.67 0 0 0 5.08 1.44 9.03 9.03 0 0 0 9.1-9.5v-.02-.04-.05a5.5 5.5 0 0 0 1.57-1.66z" filter="url(#b)" mask="url(&quot;#c&quot;)" transform="translate(-907 -7254)"/></svg>