<svg xmlns="http://www.w3.org/2000/svg" width="125" height="131.5" viewBox="0 0 125 131.5"><defs><filter id="a" width="200%" height="200%" x="-50%" y="-50%"><feMorphology in="SourceGraphic" operator="dilate" result="SvgjsFeMorphology1010Out"/><feOffset dy="5" in="SvgjsFeMorphology1010Out" result="SvgjsFeOffset1011Out"/><feGaussianBlur in="SvgjsFeOffset1011Out" result="SvgjsFeGaussianBlur1012Out" stdDeviation="2.5"/><feComposite in="SvgjsFeGaussianBlur1012Out" in2="SourceAlpha" operator="out" result="SvgjsFeComposite1013Out"/></filter></defs><path fill-opacity=".19" d="M534.84 3428.99c11.53 5.9 19.84 10.55 30.62 16.53 10.43 5.2 12.55 11.57 12.52 24.68 0 11.89.04 21.08 0 34.46.05 13.37-2.61 15.57-13.21 22.5-9.91 5.76-18.67 10.8-29.93 17.13-9.88 6.41-18.22 6.14-27.24 0a730.63 730.63 0 0 1-29.92-17.13c-10.6-6.47-14.46-11.41-14.65-24.09.03-12.09-.1-20.75 0-32.87-.03-12.42 4.22-19.03 14.65-24.08a355.76 355.76 0 0 1 29.92-17.13c12.12-6.64 15.2-6.69 27.24 0z" filter="url(#a)" transform="translate(-457.5 -3423)"/><path fill="#fff" d="M77.34 5.99c11.53 5.9 19.84 10.55 30.62 16.53 10.43 5.2 12.55 11.57 12.52 24.68 0 11.89.04 21.08 0 34.46.05 13.37-2.61 15.57-13.21 22.5-9.91 5.76-18.67 10.8-29.93 17.13-9.88 6.41-18.22 6.14-27.24 0a730.63 730.63 0 0 1-29.92-17.13C9.58 97.69 5.72 92.75 5.53 80.07c.03-12.09-.1-20.75 0-32.87-.03-12.42 4.22-19.03 14.65-24.08A355.76 355.76 0 0 1 50.1 5.99c12.12-6.64 15.2-6.69 27.24 0z"/></svg>