<svg xmlns="http://www.w3.org/2000/svg" width="38" height="38" viewBox="0 0 38 38"><path fill="#404041" d="M33.25 34.44s-6.4 1.78-13.07 3.56h-2.41c-6.62-1.78-13.02-3.56-13.02-3.56C2.24 33.62 0 32.31 0 29.68V4.75A4.75 4.75 0 0 1 4.75 0s7.07 1.97 13.02 3.56c.79 0 1.58.03 2.36 0C26.38 1.89 33.25 0 33.25 0A4.75 4.75 0 0 1 38 4.75v24.93c0 2.63-2.31 4.12-4.75 4.76zM4.75 2.37a2.39 2.39 0 0 0-2.38 2.38v24.93c0 1.32 1.03 2.01 2.38 2.38 0 0 6.58 1.82 13.06 3.56V5.93zm30.87 2.38a2.38 2.38 0 0 0-2.37-2.38L20.19 5.93V35.6c6.6-1.74 13.06-3.54 13.06-3.54 1.27-.41 2.37-1.06 2.37-2.38z"/></svg>