<svg xmlns="http://www.w3.org/2000/svg" width="32" height="41" viewBox="0 0 32 41"><path fill="#404041" d="M27.08 41H4.92A4.96 4.96 0 0 1 0 36V6c0-2.76 2.2-5 4.92-5H19.7c1.65-.03 2.3.03 2.46.03V1L32 11v25c0 2.76-2.2 5-4.92 5zM22.15 3.5v5c0 1.38 1.1 2.5 2.47 2.5h4.92zm7.39 10h-4.92a4.96 4.96 0 0 1-4.93-5s-.06-2.01-.03-5H4.92A2.48 2.48 0 0 0 2.46 6v30c0 1.38 1.1 2.5 2.46 2.5h22.16a2.48 2.48 0 0 0 2.46-2.5zM23.38 31H8.62c-.68 0-1.24-.56-1.24-1.25s.56-1.25 1.24-1.25h14.76c.68 0 1.24.56 1.24 1.25S24.06 31 23.38 31zm1.24-8.75c0-.69-.56-1.25-1.24-1.25H8.62c-.68 0-1.24.56-1.24 1.25s.56 1.25 1.24 1.25h14.76c.68 0 1.24-.56 1.24-1.25z"/></svg>