<svg xmlns="http://www.w3.org/2000/svg" width="40" height="40" viewBox="0 0 40 40"><path fill="#404041" d="M40 23.75c0-.69-.56-1.25-1.25-1.25h-7.5a1.25 1.25 0 0 0 0 2.5h7.5c.69 0 1.25-.56 1.25-1.25zm0-7.5c0-.69-.56-1.25-1.25-1.25h-10a1.25 1.25 0 0 0 0 2.5h10c.69 0 1.25-.56 1.25-1.25zm0-7.5c0-.69-.56-1.25-1.25-1.25h-10a1.25 1.25 0 0 0 0 2.5h10c.69 0 1.25-.56 1.25-1.25zM22.44 20.44A13.33 13.33 0 0 0 25 12.5C25 5.59 19.96 0 13.75 0S2.5 5.59 2.5 12.5c0 3.01.96 5.78 2.56 7.94A7.47 7.47 0 0 0 0 27.5v5A7.5 7.5 0 0 0 7.5 40H20a7.5 7.5 0 0 0 7.5-7.5v-5a7.47 7.47 0 0 0-5.06-7.06zm-8.69 2.06C8.92 22.5 5 18.02 5 12.5c0-5.53 3.92-10 8.75-10s8.75 4.47 8.75 10c0 5.52-3.92 10-8.75 10zM25 31.87c0 3.11-2.75 5.63-6.14 5.63H8.64c-3.4 0-6.14-2.52-6.14-5.63v-3.75c0-2.65 2.02-4.87 4.72-5.46A10.42 10.42 0 0 0 13.75 25c2.44 0 4.69-.87 6.53-2.34 2.7.59 4.72 2.81 4.72 5.46zM31.25 30h7.5a1.25 1.25 0 0 1 0 2.5h-7.5a1.25 1.25 0 0 1 0-2.5z"/></svg>